<svg xmlns="http://www.w3.org/2000/svg" enable-background="new 0 0 800 546.7" viewBox="0 0 800 546.7"><path fill="#48423D" d="M746.6,402.6c0,17-1.4,32.3-4.4,46.1c-4.7,21.4-13.2,39.2-26.1,54H84c-12.9-14.8-21.5-32.5-26.1-54
		c-3-13.8-4.4-29-4.4-46.1c0-38.4,10.9-69.9,36.4-122.6C67.5,208.8,62.1,52.8,109.7,3.4C187.9,11.6,290.6,135,290.6,135
		S349,117.3,400,117.3c51,0,109.4,17.7,109.4,17.7S612.1,11.6,690.3,3.4c47.6,49.4,42.2,205.4,19.9,276.6
		C735.7,332.7,746.6,364.2,746.6,402.6z"/><path fill="#FAC662" d="M570.7,157c-1.5-5.2,77.7-123.4,120.1-131.7c31.8,94.5,14.4,178.8-10.5,231.9c0,0-4.7-23.2-28-29.7
		c0,0,10.3-5.4,24.3,1.4c0,0-17.3-20.6-52.6-26.4c0,0,25.3-9.4,44.6-1.4c0,0-24.2-20-50.8-20.7c0,0,13.9-11.6,29.2-15.5
		c0,0-24.9-1.2-53.9,2.4C577.9,169.2,572.4,163.1,570.7,157z"/><path fill="#381C22" d="M700.4,371.3c-1.4,0-2.6-0.8-3.2-2.2c-0.7-1.7,0.2-3.7,1.9-4.4l54.4-21.3c1.7-0.7,3.7,0.2,4.4,1.9
			c0.7,1.7-0.2,3.7-1.9,4.4l-54.4,21.3C701.2,371.2,700.8,371.3,700.4,371.3z"/><path fill="#381C22" d="M703.1,392.1c-1.8,0-3.3-1.4-3.4-3.2c-0.1-1.9,1.3-3.5,3.2-3.6l58.4-3.5c1.9-0.2,3.5,1.3,3.6,3.2
			c0.1,1.9-1.3,3.5-3.2,3.6l-58.4,3.5C703.3,392.1,703.2,392.1,703.1,392.1z"/><path fill="#381C22" d="M757.8,425.5c-0.3,0-0.5,0-0.8-0.1L700,412c-1.8-0.4-3-2.3-2.5-4.1c0.4-1.8,2.3-3,4.1-2.5l57,13.4
			c1.8,0.4,3,2.3,2.5,4.1C760.7,424.4,759.3,425.5,757.8,425.5z"/><path fill="#FAC662" d="M229.3,157c1.5-5.2-77.7-123.4-120.1-131.7c-31.8,94.5-14.4,178.8,10.5,231.9c0,0,4.7-23.2,28-29.7
		c0,0-10.3-5.4-24.3,1.4c0,0,17.3-20.6,52.6-26.4c0,0-25.3-9.4-44.6-1.4c0,0,24.2-20,50.8-20.7c0,0-13.9-11.6-29.2-15.5
		c0,0,24.9-1.2,53.9,2.4C222.1,169.2,227.6,163.1,229.3,157z"/><path fill="#381C22" d="M99.6,371.3c-0.4,0-0.8-0.1-1.2-0.2l-54.4-21.3c-1.7-0.7-2.6-2.7-1.9-4.4c0.7-1.7,2.7-2.6,4.4-1.9
			l54.4,21.3c1.7,0.7,2.6,2.7,1.9,4.4C102.2,370.5,100.9,371.3,99.6,371.3z"/><path fill="#381C22" d="M96.9,392.1c-0.1,0-0.1,0-0.2,0l-58.4-3.5c-1.9-0.1-3.3-1.7-3.2-3.6c0.1-1.9,1.7-3.3,3.6-3.2l58.4,3.5
			c1.9,0.1,3.3,1.7,3.2,3.6C100.2,390.7,98.7,392.1,96.9,392.1z"/><path fill="#381C22" d="M42.2,425.5c-1.5,0-2.9-1.1-3.3-2.6c-0.4-1.8,0.7-3.7,2.5-4.1l57-13.4c1.8-0.4,3.7,0.7,4.1,2.5
			c0.4,1.8-0.7,3.7-2.5,4.1l-57,13.4C42.7,425.4,42.4,425.5,42.2,425.5z"/><path fill="#FDEDD0" d="M742.2,448.6c-4.7,21.4-13.2,39.2-26.1,54H84c-12.9-14.8-21.5-32.5-26.1-54c1-0.6,2.1-1.1,3.1-1.7
		c128.3-69.9,149.3-31.5,198.4-31.5c52.5,0,82.9-40.2,140.6-40.2s88.1,40.2,140.6,40.2c49.2,0,70.1-38.3,198.4,31.5
		C740.1,447.5,741.1,448.1,742.2,448.6z"/><path fill="#381C22" d="M622.6,358.6c0,39.3-30,61.4-64,65.9c-66.5,8.7-85.8-26.9-92.2-45.1c-4.7-13.5-6.1-30.8,0.6-52.7
			c10-32.4,42.8-54.9,74.5-54.9C581.6,271.8,622.6,312.7,622.6,358.6z"/><path fill="#FDEDD0" d="M613,359.4c0,30.2-24.4,50.1-52.9,57.7c-5.5,0.8-11.1,1.3-16.6,1.3c-18.4,0-38.6-4-51.2-14.2
			c-2.8-2.3-6-5.1-9-8.6c-9.6-10.8-15.1-24.8-15.1-39.2c0-0.1,0-0.1,0-0.2c0-39.2,30.6-71.1,68.4-71.1
			C574.4,285.1,613,320.1,613,359.4z"/><ellipse cx="532.4" cy="353" fill="#381C22" rx="52.1" ry="55.7"/><circle cx="562.8" cy="327.3" r="19.2" fill="#FDEDD0" transform="rotate(-77.379 562.764 327.343)"/><path fill="#381C22" d="M400,426.1c-1.9,0-3.4-1.5-3.4-3.4v-19.6c0-1.9,1.5-3.4,3.4-3.4c1.9,0,3.4,1.5,3.4,3.4v19.6
				C403.4,424.6,401.9,426.1,400,426.1z"/><path fill="#381C22" d="M421.4,442c-2.1,0-4.2-0.3-6.4-0.9c-9.8-2.7-18.5-11.3-18.5-18.4c0-1.9,1.5-3.4,3.4-3.4
				c1.9,0,3.4,1.5,3.4,3.4c0,2.8,5.2,9.7,13.5,11.9c6,1.6,14.7,0.9,22-11.6c0.9-1.6,3-2.2,4.6-1.2c1.6,0.9,2.2,3,1.2,4.6
				C438.8,436.5,430.5,442,421.4,442z"/><path fill="#381C22" d="M378.6,442c-9.1,0-17.3-5.4-23.3-15.6c-0.9-1.6-0.4-3.7,1.2-4.6c1.6-0.9,3.7-0.4,4.6,1.2
				c7.3,12.5,16,13.2,22,11.6c8.2-2.2,13.5-9.1,13.5-11.9c0-1.9,1.5-3.4,3.4-3.4c1.9,0,3.4,1.5,3.4,3.4c0,7.2-8.6,15.8-18.5,18.4
				C382.8,441.7,380.6,442,378.6,442z"/><path fill="#F15F4D" d="M400,403.1c0,0-9.2-2.9-10-9.8c-0.7-6.9-9.1-6.2-12.7-4.3c-3.6,1.8-16.7-6.5-15.6-12.7
			c1.1-6.2,15.6-13.4,38.2-13.4c22.6,0,37.1,7.2,38.2,13.4c1.1,6.2-12,14.5-15.6,12.7c-3.6-1.8-12-2.5-12.7,4.3
			C409.2,400.2,400,403.1,400,403.1z"/><g><path fill="#381C22" d="M177.4,358.6c0,39.3,30,61.4,64,65.9c66.5,8.7,85.8-26.9,92.2-45.1c4.7-13.5,6.1-30.8-0.6-52.7
			c-10-32.4-42.8-54.9-74.5-54.9C218.4,271.8,177.4,312.7,177.4,358.6z"/><path fill="#FDEDD0" d="M187,359.4c0,30.2,24.4,50.1,52.9,57.7c5.5,0.8,11.1,1.3,16.6,1.3c18.4,0,38.6-4,51.2-14.2
			c2.8-2.3,6-5.1,9-8.6c9.6-10.8,15.1-24.8,15.1-39.2c0-0.1,0-0.1,0-0.2c0-39.2-30.6-71.1-68.4-71.1
			C225.6,285.1,187,320.1,187,359.4z"/><ellipse cx="267.6" cy="353" fill="#381C22" rx="52.1" ry="55.7"/><circle cx="237.2" cy="327.3" r="19.2" fill="#FDEDD0" transform="rotate(-13.76 237.302 327.372)"/></g><g><path fill="#381C22" d="M713.8,279.7c11.5-37.5,17.7-94.7,16-146.3C728.6,97.1,722.2,31.6,692.7,1c-0.7-0.7-1.8-1.1-2.8-1
			c-74.5,7.8-168.4,115.5-181.7,131.1c-11.1-3.2-62.8-17.2-108.3-17.2s-97.2,14-108.3,17.2C278.5,115.5,184.6,7.8,110.1,0
			c-1-0.1-2.1,0.3-2.8,1C77.8,31.6,71.4,97.1,70.2,133.4c-1.7,51.6,4.6,108.8,16,146.3C62.2,329.3,50,362.1,50,402.6
			c0,17.7,1.5,33,4.5,46.8c4.6,20.8,12.6,38.4,24.9,53.2h9.2c-13.9-15-22.7-32.9-27.5-54.7c-0.1-0.3-0.1-0.7-0.2-1
			c-2.8-13.1-4.1-27.6-4.1-44.4c0-39.5,12.1-71.7,36.1-121.1c0.4-0.8,0.4-1.7,0.2-2.5c-11.5-36.8-17.8-93.8-16.1-145.3
			C79,73.7,91,28.9,111,7c75.7,9.5,175.9,129,176.9,130.2c0.9,1.1,2.3,1.5,3.6,1.1c0.6-0.2,58.5-17.5,108.5-17.5
			s107.9,17.3,108.5,17.5c1.3,0.4,2.7,0,3.6-1.1C513.1,135.9,613.3,16.5,689,7c20,21.9,32.1,66.8,34.1,126.7
			c1.7,51.5-4.6,108.5-16.1,145.3c-0.3,0.8-0.2,1.7,0.2,2.5c23.9,49.4,36.1,81.7,36.1,121.1c0,16.7-1.4,31.2-4.1,44.4
			c-0.1,0.3-0.1,0.7-0.2,1c-4.7,21.7-13.5,39.7-27.5,54.7h9.2c12.3-14.8,20.4-32.4,24.9-53.2c3-13.9,4.5-29.2,4.5-46.8
			C750,362.1,737.8,329.3,713.8,279.7z"/></g><g><path fill="#381C22" d="M796.6,505.3H3.4c-1.9,0-3.4-1.5-3.4-3.4c0-1.9,1.5-3.4,3.4-3.4h793.2c1.9,0,3.4,1.5,3.4,3.4
			C800,503.8,798.5,505.3,796.6,505.3z"/></g><g><path fill="#48423D" d="M64.4,493.4c8.7-26.8,51.1-40.9,72.1-40.9c43.5-0.1,61.2,20.7,58.3,54.3s-35.3,28.6-35.3,28.6
			c-24.9,15.6-44.3,2.9-44.3,2.9C77.1,545.3,55.7,520.3,64.4,493.4z"/><path fill="#381C22" d="M134.2,546.7c-9.8,0-17-3.3-19.7-4.8c-19.6,3.2-36.5-1.5-46.7-13.1c-8.5-9.8-11-23.1-6.6-36.4l0,0
				c9.3-28.7,53.3-43.2,75.3-43.3c0.1,0,0.2,0,0.3,0c22.9,0,39.7,5.7,50.1,16.9c9,9.9,12.9,23.7,11.3,41.1
				c-1,11.1-5.1,19.5-12.1,25.1c-9.6,7.5-21.8,7.1-25.8,6.8C150.5,544.8,141.6,546.7,134.2,546.7z M115.2,535c0.7,0,1.3,0.2,1.9,0.5
				c0.7,0.5,18.1,11.2,40.7-2.9c0.7-0.4,1.5-0.6,2.3-0.5c0.1,0,12.8,1.8,21.9-5.3c5.5-4.3,8.7-11.1,9.5-20.3
				c1.4-15.4-1.9-27.5-9.6-35.9c-9-9.8-24.1-14.7-45-14.7c-0.1,0-0.2,0-0.3,0c-19.7,0-60.7,13.3-68.9,38.6l0,0
				c-3.6,11-1.6,21.9,5.3,29.8c8.7,10,23.9,13.9,41.6,10.7C114.8,535,115,535,115.2,535z"/><path fill="#381C22" d="M159.5,538.9c-0.4,0-0.8-0.1-1.2-0.2c-1.8-0.7-2.6-2.6-2-4.4c0.1-0.4,13.8-37.1-1.9-62.8
				c-1-1.6-0.5-3.7,1.1-4.7c1.6-1,3.7-0.5,4.7,1.1c17.5,28.5,3.1,67.1,2.5,68.7C162.2,538,160.9,538.9,159.5,538.9z"/><path fill="#381C22" d="M115.2,541.8c-0.3,0-0.7-0.1-1-0.2c-1.8-0.6-2.8-2.5-2.2-4.3l0,0c0.1-0.3,9.8-32-2.3-60.9
				c-0.7-1.7,0.1-3.7,1.8-4.4c1.7-0.7,3.7,0.1,4.4,1.8c13.1,31.2,3,64.2,2.6,65.6C117.9,540.8,116.6,541.8,115.2,541.8z"/></g><g><path fill="#48423D" d="M735.6,493.4c-8.7-26.8-51.1-40.9-72.1-40.9c-43.5-0.1-61.2,20.7-58.3,54.3c3,33.7,35.3,28.6,35.3,28.6
			c24.9,15.6,44.3,2.9,44.3,2.9C722.9,545.3,744.3,520.3,735.6,493.4z"/><path fill="#381C22" d="M665.8,546.7c-7.4,0-16.3-1.8-26.1-7.7c-4,0.4-16.1,0.8-25.8-6.8c-7.1-5.5-11.1-13.9-12.1-25.1
				c-1.5-17.4,2.3-31.3,11.3-41.1c10.4-11.3,27.3-17,50.3-16.9c22,0,66,14.5,75.3,43.3l0,0c4.3,13.4,1.9,26.6-6.6,36.4
				c-10.1,11.6-27.1,16.3-46.7,13.1C682.7,543.4,675.6,546.7,665.8,546.7z M640.5,532.1c0.6,0,1.3,0.2,1.8,0.5
				c22.6,14.2,40,3.4,40.7,2.9c0.7-0.5,1.6-0.6,2.4-0.5c17.7,3.2,32.9-0.7,41.6-10.7c6.9-7.9,8.9-18.8,5.3-29.8
				c-8.2-25.3-49.2-38.5-68.9-38.6c-0.1,0-0.2,0-0.3,0c-20.9,0-36.1,5-45,14.7c-7.7,8.4-10.9,20.5-9.6,35.9c0.8,9.1,4,15.9,9.5,20.3
				c9.1,7.1,21.8,5.3,21.9,5.3C640.2,532.1,640.3,532.1,640.5,532.1z"/><path fill="#381C22" d="M640.5,538.9c-1.4,0-2.7-0.8-3.2-2.2c-0.6-1.6-15-40.2,2.5-68.7c1-1.6,3.1-2.1,4.7-1.1
				c1.6,1,2.1,3.1,1.1,4.7c-15.8,25.7-2.1,62.4-1.9,62.8c0.7,1.8-0.2,3.7-2,4.4C641.3,538.8,640.9,538.9,640.5,538.9z"/><path fill="#381C22" d="M684.8,541.8c-1.4,0-2.8-0.9-3.2-2.4c-0.4-1.4-10.5-34.3,2.6-65.6c0.7-1.7,2.7-2.5,4.4-1.8
				c1.7,0.7,2.5,2.7,1.8,4.4c-12.1,28.9-2.4,60.6-2.3,60.9c0.6,1.8-0.4,3.7-2.2,4.3C685.5,541.7,685.2,541.8,684.8,541.8z"/></g></svg>